<?xml version="1.0" encoding="UTF-8"?>
<svg id="Layer_1" data-name="Layer 1" xmlns="http://www.w3.org/2000/svg" viewBox="0 0 36.85 51.02">
  <defs>
    <style>
      .cls-1 {
        fill: #fff;
      }
    </style>
  </defs>
  <circle class="cls-1" cx="32.98" cy="3.77" r="2.27"/>
  <path class="cls-1" d="M16.31,33.13c1.11.36,1.98,1,2.93,1.72.09-3.87-3.58-6.28-6.84-7.67-1.98-.84-3.29-2.36-2.93-4.36.16-.88.88-1.79,1.83-2.3,0,2.49,1.48,3.49,3.93,3.69,1.82.15,3.49.9,3.17,1.4l-.52.81c.96.17,1.91.27,2.86.19s1.74-.88,1.55-1.88c-.2-1.08-.77-2.13-1.34-3.01-.27.45-.44.78-.62.93s-.79-.01-.97-.17c-1.46-1.26-.59-2.76-1.76-3.57-2.5-1.74-3.29-5.02-5.66-7.4l.68,3.08c-1.56-1.19-2.87-2.25-4.65-3.18,1.3,1.83,2.69,3.27,3.67,5.33-2.5-1.38-5.06-2.29-7.5-.5.67.04,1.33.06,1.78.45.19.17.28.83.16,1.05-.53,1.05-1.94.88-3.52,1.76-.95.53-1.71,1.38-1.78,2.52.68-.28,1.31-.58,1.98-.41.2.05.52.54.42.72l-.43.77c-1.69,1.02-2.23,3.01-1.35,4.73.12-.74.58-1.52,1.31-1.29.77.24,1.07,1.13,1.38,1.82,1.88,4.2,7.73,4.85,8.69,8.55.23.9-.09,1.81-.87,2.3s-1.68.6-2.67.87c2.29.38,4.66-.22,6.27-1.78,1.45-1.4,1.65-3.24.8-5.2ZM16.2,20.77l-1.3-1.85,2.69,1.58-1.39.27ZM18.76,23.85l.22-.58c.09-.25,1.11-.1,1.46,1.1-.65-.41-.84-.97-1.67-.52ZM6.31,35.72c.45-.05,1.07-.37,1.19-.7.14-.39.04-.95-.04-1.46,1.2.56,2.28,1.48,2.85,2.66s.07,2.42-1.18,2.84c-3.72,1.24-7.7-1.59-8.35-5.46,1.61,1.54,3.46,2.38,5.53,2.13Z"/>
  <g>
    <path class="cls-1" d="M10.64,22.49c-.09.17-.16.34-.19.51-.33,1.83,1.32,2.83,2.34,3.26.94.4,1.79.83,2.56,1.29v-2.31c-.07,0-.13-.02-.2-.03-2.7-.22-3.96-1.39-4.5-2.72Z"/>
    <path class="cls-1" d="M30.89,8.19c-.8-2.04-2.04-3.63-3.71-4.77s-3.85-1.71-6.51-1.71-4.85.57-6.54,1.71c-1.69,1.14-2.94,2.73-3.74,4.77-.03.08-.05.17-.08.25l2.35,2.37c1.14,1.15,1.91,2.44,2.66,3.69.02.04.05.08.07.11.03-1.25.14-2.45.37-3.57.27-1.31.78-2.37,1.54-3.17.76-.8,1.89-1.2,3.37-1.2s2.6.4,3.34,1.2,1.25,1.86,1.51,3.17c.27,1.31.4,2.71.4,4.2v20.06c0,1.41-.14,2.77-.43,4.09-.28,1.31-.8,2.39-1.54,3.23s-1.84,1.26-3.29,1.26-2.51-.42-3.28-1.26c-.78-.83-1.3-1.9-1.59-3.2-1.4,1.16-3.22,1.8-5.19,1.8-.18,0-.37-.01-.55-.02.12.36.23.73.36,1.08.82,2.06,2.08,3.68,3.77,4.86,1.69,1.18,3.86,1.77,6.48,1.77s4.78-.58,6.46-1.74c1.68-1.16,2.92-2.77,3.74-4.83.82-2.06,1.23-4.42,1.23-7.09V15.31c0-2.7-.4-5.08-1.2-7.11Z"/>
    <path class="cls-1" d="M10.26,8.56c-.3.82-.54,1.69-.71,2.62.53.32,1.03.65,1.51.99l-.1-.43-.71-3.18Z"/>
  </g>
</svg>