<?xml version="1.0" encoding="UTF-8"?>
<svg id="Layer_1" data-name="Layer 1" xmlns="http://www.w3.org/2000/svg" viewBox="0 0 36.85 51.02">
  <defs>
    <style>
      .cls-1 {
        fill: #fff;
      }
    </style>
  </defs>
  <g>
    <rect class="cls-1" x="17.9" y="5.67" width="4.55" height="27.78"/>
    <rect class="cls-1" x="11.15" y="12.37" width="4.55" height="17.05" transform="translate(-10.85 15.61) rotate(-45)"/>
    <rect class="cls-1" x="10.33" y="10.01" width="4.55" height="4.55"/>
    <rect class="cls-1" x="3.68" y="18.92" width="4.55" height="4.55"/>
    <rect class="cls-1" x="28.62" y="13.26" width="4.55" height="4.55"/>
    <rect class="cls-1" x="23.26" y="4.73" width="4.55" height="17.05" transform="translate(16.86 -14.17) rotate(45)"/>
  </g>
  <g>
    <path class="cls-1" d="M6.72,45.4v-9.72h2.23c.44,0,.82.05,1.15.14.32.1.59.24.81.44.22.2.38.45.48.76.1.31.16.67.16,1.09s-.05.75-.15,1.04c-.1.29-.25.52-.46.69s-.47.28-.79.32c.39.09.71.24.95.45.24.21.42.48.53.82s.17.73.17,1.19c0,.42-.05.8-.14,1.14-.1.34-.25.64-.45.88-.2.24-.46.43-.78.56-.32.13-.69.2-1.12.2h-2.59ZM8.08,39.74h.8c.38,0,.68-.05.9-.16s.37-.28.46-.52c.09-.24.13-.55.13-.94,0-.45-.07-.77-.2-.97-.14-.2-.35-.33-.64-.38-.29-.05-.67-.08-1.13-.08h-.32v3.05ZM8.08,44.43h.91c.61,0,1.01-.14,1.22-.43.2-.28.31-.74.31-1.37,0-.41-.05-.75-.16-1.03-.11-.28-.28-.48-.52-.62-.24-.14-.55-.21-.95-.21h-.8v3.66Z"/>
    <path class="cls-1" d="M14.15,45.5c-.27,0-.51-.08-.72-.23-.21-.16-.37-.36-.49-.6-.12-.24-.18-.5-.18-.77,0-.43.07-.8.22-1.09.14-.3.34-.55.59-.75.25-.2.54-.38.88-.53.33-.15.68-.3,1.05-.44v-.49c0-.28-.02-.51-.05-.7-.03-.18-.1-.32-.2-.41-.1-.09-.25-.14-.45-.14-.18,0-.32.04-.43.12-.11.08-.19.19-.23.34s-.07.32-.07.52v.35l-1.27-.05c.02-.77.19-1.33.53-1.7.34-.36.86-.55,1.56-.55s1.18.19,1.46.56.43.92.43,1.63v3.17c0,.22,0,.42.02.62.01.2.03.39.05.56.02.17.04.33.05.49h-1.18c-.02-.13-.05-.29-.09-.49-.04-.2-.06-.37-.08-.53-.08.27-.23.53-.46.76-.23.24-.54.35-.94.35ZM14.65,44.39c.13,0,.25-.04.36-.11.11-.07.21-.15.3-.25.09-.09.15-.17.18-.22v-1.97c-.2.11-.39.22-.56.34-.18.11-.33.23-.46.35s-.24.26-.31.42c-.08.16-.11.33-.11.53,0,.28.05.5.16.66.1.16.26.24.46.24Z"/>
    <path class="cls-1" d="M18.01,45.4v-6.94h1.19v.66c.23-.26.49-.46.77-.59.28-.13.57-.19.86-.19.26,0,.49.06.69.19s.35.36.44.68c.25-.3.52-.53.81-.67.29-.14.6-.21.92-.21.22,0,.43.05.61.16.18.11.33.28.44.52s.17.55.17.93v5.45h-1.18v-5.36c0-.34-.05-.56-.16-.68-.11-.12-.25-.17-.44-.17s-.36.05-.55.15c-.19.1-.37.24-.53.41v5.65h-1.18v-5.36c0-.34-.05-.56-.16-.68-.11-.12-.25-.17-.44-.17s-.36.05-.55.15c-.19.1-.37.24-.53.41v5.65h-1.19Z"/>
    <path class="cls-1" d="M28.65,45.5c-.25,0-.47-.06-.67-.19s-.37-.26-.51-.41v.5h-1.28v-9.72h1.28v3.34c.15-.18.33-.33.55-.46s.47-.19.76-.19c.36,0,.65.09.86.28s.37.42.47.71c.1.28.17.57.2.86.03.29.05.54.05.75v1.68c0,.49-.05.95-.14,1.39s-.27.79-.52,1.06c-.25.27-.6.4-1.06.4ZM28.39,44.49c.22,0,.38-.08.48-.25.1-.16.16-.39.18-.67.02-.28.04-.59.04-.92v-1.68c0-.29-.02-.55-.05-.8-.03-.24-.1-.44-.2-.58-.1-.14-.27-.22-.49-.22-.17,0-.33.04-.47.11-.15.07-.28.15-.39.24v4.45c.11.09.25.16.4.22.16.06.33.09.51.09Z"/>
  </g>
</svg>