<?xml version="1.0" encoding="UTF-8"?>
<svg id="Layer_1" data-name="Layer 1" xmlns="http://www.w3.org/2000/svg" viewBox="0 0 77.03 22.95">
  <defs>
    <style>
      .cls-1 {
        fill: #ef1414;
      }
    </style>
  </defs>
  <path class="cls-1" d="M34.28,7.78c-.49-.32-1.06-.48-1.72-.48s-1.23.16-1.72.48-.87.79-1.14,1.42c-.27.62-.4,1.39-.4,2.29s.13,1.67.4,2.29c.27.62.65,1.09,1.14,1.42s1.06.48,1.72.48,1.23-.16,1.72-.48c.49-.32.87-.79,1.14-1.42s.4-1.39.4-2.29-.13-1.67-.4-2.29c-.27-.62-.65-1.09-1.14-1.42Z"/>
  <path class="cls-1" d="M69.39,7.82c-.55-.28-1.22-.43-2.02-.43h-1.73v8.18h1.72c.8,0,1.48-.14,2.03-.43s.96-.73,1.24-1.33c.28-.6.42-1.38.42-2.34s-.14-1.72-.42-2.32c-.28-.6-.69-1.04-1.24-1.33Z"/>
  <path class="cls-1" d="M71.03,0H6C2.69,0,0,2.69,0,6v10.95c0,3.31,2.69,6,6,6h65.03c3.31,0,6-2.69,6-6V6c0-3.31-2.69-6-6-6ZM6.43,13.79c.27.62.66,1.09,1.15,1.41.49.32,1.06.48,1.71.48.36,0,.7-.05,1.01-.14.31-.1.59-.24.83-.42.24-.19.44-.41.6-.68.16-.27.27-.57.33-.91h2.74c-.07.6-.25,1.17-.53,1.71-.28.54-.66,1.03-1.13,1.46-.47.43-1.04.77-1.69,1.01-.65.25-1.39.37-2.21.37-1.14,0-2.17-.26-3.07-.78-.9-.52-1.61-1.27-2.13-2.25s-.78-2.17-.78-3.56.26-2.59.79-3.57c.53-.98,1.24-1.73,2.14-2.25s1.92-.77,3.04-.77c.74,0,1.43.1,2.07.31s1.2.51,1.69.91c.49.4.89.89,1.21,1.46s.51,1.24.6,1.98h-2.74c-.05-.35-.15-.67-.31-.95-.15-.28-.35-.51-.59-.71s-.52-.35-.84-.45-.66-.16-1.02-.16c-.66,0-1.24.16-1.73.49-.49.33-.88.8-1.15,1.43s-.41,1.38-.41,2.27.14,1.68.41,2.31ZM24.98,17.9h-8.21V5.07h2.71v10.59h5.5v2.24ZM37.78,15.06c-.53.98-1.25,1.73-2.16,2.25-.91.52-1.93.77-3.06.77s-2.16-.26-3.07-.78c-.91-.52-1.62-1.27-2.15-2.25-.53-.98-.79-2.17-.79-3.56s.26-2.59.79-3.57c.53-.98,1.24-1.73,2.15-2.25s1.93-.77,3.07-.77,2.15.26,3.06.77c.91.52,1.63,1.26,2.16,2.25s.79,2.17.79,3.57-.26,2.59-.79,3.57ZM49.71,16.27c-.39.57-.96,1.02-1.7,1.33-.74.32-1.63.47-2.68.47s-1.94-.16-2.7-.48c-.77-.32-1.36-.79-1.79-1.41s-.65-1.4-.67-2.32h2.62c.03.43.15.79.37,1.07.22.29.51.5.88.65.37.14.79.22,1.26.22s.86-.07,1.2-.2.6-.32.79-.56c.19-.24.28-.51.28-.82,0-.29-.08-.53-.25-.73-.17-.2-.42-.36-.74-.5-.32-.14-.72-.26-1.19-.38l-1.4-.35c-1.08-.26-1.94-.67-2.56-1.23s-.94-1.31-.93-2.26c0-.78.2-1.46.62-2.04.42-.58,1-1.03,1.73-1.36.73-.33,1.57-.49,2.51-.49s1.78.16,2.5.49c.71.33,1.27.78,1.66,1.36.4.58.6,1.25.61,2.02h-2.6c-.05-.5-.27-.9-.65-1.18-.38-.28-.9-.42-1.55-.42-.44,0-.82.06-1.12.18-.3.12-.54.29-.7.51-.16.22-.24.46-.24.74,0,.23.04.43.15.6.11.17.25.32.44.44s.4.23.65.32.51.17.79.23l1.15.28c.56.12,1.07.29,1.54.5s.87.47,1.22.77.61.66.8,1.08c.19.41.29.89.29,1.42,0,.79-.2,1.46-.6,2.04ZM60.79,17.9h-8.67V5.07h8.64v2.24h-5.93v3.06h5.49v2.24h-5.49v3.06h5.96v2.24ZM73,14.92c-.5.96-1.22,1.7-2.16,2.21s-2.06.77-3.36.77h-4.55V5.07h4.59c1.29,0,2.4.26,3.33.77.93.51,1.65,1.25,2.15,2.2.5.96.75,2.1.75,3.43s-.25,2.48-.75,3.45Z"/>
</svg>