<?xml version="1.0" encoding="UTF-8"?>
<svg id="Layer_1" data-name="Layer 1" xmlns="http://www.w3.org/2000/svg" viewBox="0 0 36.85 51.02">
  <defs>
    <style>
      .cls-1 {
        fill: #fff;
      }
    </style>
  </defs>
  <g>
    <path class="cls-1" d="M11.47,45.51c-.69,0-1.22-.14-1.6-.43-.38-.29-.64-.68-.79-1.16-.15-.49-.22-1.03-.22-1.63v-3.43c0-.66.07-1.23.22-1.72.15-.49.41-.87.79-1.13s.91-.4,1.6-.4c.61,0,1.09.11,1.45.34.36.22.61.54.77.96.16.42.23.92.23,1.5v.77h-1.28v-.68c0-.36-.02-.68-.05-.95s-.13-.49-.29-.64-.43-.23-.8-.23-.66.08-.84.25c-.18.16-.29.4-.34.7-.05.3-.08.65-.08,1.05v3.85c0,.49.04.87.12,1.16.08.28.21.49.4.61.18.12.43.18.74.18.37,0,.63-.08.79-.25s.26-.39.3-.68c.04-.29.06-.62.06-1.01v-.72h1.28v.72c0,.59-.07,1.11-.22,1.57-.14.45-.39.8-.74,1.06-.35.25-.85.38-1.49.38Z"/>
    <path class="cls-1" d="M15.14,45.4v-6.94h1.28v.98c.26-.42.51-.71.77-.85.26-.14.51-.22.77-.22h.09s.07,0,.11.01v1.42c-.1-.04-.21-.07-.33-.1-.12-.03-.25-.04-.38-.04-.2,0-.38.05-.55.14-.16.09-.33.27-.49.53v5.06h-1.28Z"/>
    <path class="cls-1" d="M20.21,45.5c-.27,0-.51-.08-.72-.23-.21-.16-.37-.36-.49-.6-.12-.24-.18-.5-.18-.77,0-.43.07-.8.22-1.09.14-.3.34-.55.59-.75.25-.2.54-.38.88-.53.33-.15.68-.3,1.05-.44v-.49c0-.28-.02-.51-.05-.7-.03-.18-.1-.32-.2-.41-.1-.09-.25-.14-.45-.14-.18,0-.32.04-.43.12-.11.08-.19.19-.23.34s-.07.32-.07.52v.35l-1.27-.05c.02-.77.19-1.33.53-1.7.34-.36.86-.55,1.56-.55s1.18.19,1.46.56.43.92.43,1.63v3.17c0,.22,0,.42.02.62.01.2.03.39.05.56.02.17.04.33.05.49h-1.18c-.02-.13-.05-.29-.09-.49-.04-.2-.06-.37-.08-.53-.08.27-.23.53-.46.76-.23.24-.54.35-.94.35ZM20.71,44.39c.13,0,.25-.04.36-.11.11-.07.21-.15.3-.25.09-.09.15-.17.18-.22v-1.97c-.2.11-.39.22-.56.34-.18.11-.33.23-.46.35s-.24.26-.31.42c-.08.16-.11.33-.11.53,0,.28.05.5.16.66.1.16.26.24.46.24Z"/>
    <path class="cls-1" d="M24.09,45.39v-9.72h1.28v5.8l1.87-3h1.34l-1.63,2.71,1.58,4.22h-1.28l-1.3-3.55-.59.89v2.65h-1.28Z"/>
  </g>
  <path class="cls-1" d="M27.95,31.57h-2.68c-1.93,0-2.96-.68-3.31-2.3l-.89.12c-4.55.61-9.41,1.19-12.58,1.55-.22.23-.51.38-.83.43l-.89.15-1.42-4.15,1.35-.12c.91-.08,1.97-.18,3.13-.3.64-4.33,1.37-10.54,1.81-15.56h-5.45v-3.82h24.72v3.82h-15.37l-.04.36c-.05.56-.11,1.14-.16,1.72h10.36v14.33h1.85c.16-.71.21-2.64.23-3.73l.06-2.26,1.71,1.49c.22.19.73.43,1.13.54l.82.22-.03.85c-.12,3.43-.24,6.67-3.52,6.67ZM14.57,20.72c-.24,2.05-.48,4.07-.71,5.8,1.71-.18,3.5-.38,5.29-.59l-.35-.63c-.71-1.28-2.45-3.15-4.23-4.58ZM21.83,24.51l-1.71,1.3c.22-.03.43-.05.65-.08l1.05-.13v-1.1ZM16.15,17.28l.63.46c1.74,1.26,3.91,3.27,5.05,5.06v-5.54h-6.87c-.04.32-.07.64-.11.97l1.3-.95Z"/>
</svg>