<?xml version="1.0" encoding="UTF-8"?>
<svg id="Layer_1" data-name="Layer 1" xmlns="http://www.w3.org/2000/svg" viewBox="0 0 36.85 51.02">
  <path d="M25.72,36.77c1.69.55,3.03,1.53,4.47,2.63.14-5.92-5.48-9.61-10.46-11.73-3.03-1.29-5.04-3.62-4.48-6.67.25-1.34,1.35-2.73,2.8-3.51,0,3.8,2.26,5.34,6,5.65,2.78.23,5.34,1.37,4.84,2.15l-.8,1.24c1.47.25,2.93.41,4.38.29s2.66-1.35,2.37-2.88c-.31-1.66-1.18-3.26-2.05-4.6-.41.69-.67,1.2-.94,1.43s-1.21-.02-1.49-.26c-2.24-1.92-.9-4.23-2.69-5.47-3.83-2.66-5.04-7.68-8.66-11.32l1.05,4.71c-2.39-1.82-4.39-3.43-7.11-4.86,1.98,2.8,4.12,5,5.62,8.15-3.82-2.12-7.74-3.5-11.47-.76,1.03.06,2.04.09,2.72.68.3.26.42,1.27.25,1.61-.81,1.6-2.96,1.34-5.38,2.69-1.45.81-2.62,2.11-2.72,3.86,1.04-.43,2-.88,3.02-.63.31.08.79.83.64,1.11l-.66,1.18c-2.58,1.56-3.41,4.6-2.07,7.23.18-1.14.88-2.32,2.01-1.97,1.18.37,1.64,1.73,2.11,2.79,2.87,6.42,11.82,7.42,13.29,13.07.36,1.38-.13,2.77-1.34,3.52s-2.57.91-4.08,1.34c3.51.58,7.13-.33,9.59-2.72,2.21-2.14,2.52-4.96,1.22-7.96ZM25.54,17.87l-1.99-2.83,4.11,2.42-2.12.42ZM29.46,22.58l.33-.88c.14-.38,1.7-.15,2.23,1.68-.99-.62-1.28-1.48-2.56-.8ZM10.42,40.73c.68-.08,1.63-.57,1.81-1.07.21-.6.07-1.45-.07-2.23,1.83.86,3.49,2.26,4.37,4.07s.11,3.7-1.8,4.34c-5.68,1.9-11.77-2.43-12.77-8.36,2.47,2.36,5.29,3.64,8.46,3.25Z"/>
</svg>