<?xml version="1.0" encoding="UTF-8"?>
<svg id="Layer_1" data-name="Layer 1" xmlns="http://www.w3.org/2000/svg" viewBox="0 0 36.85 51.02">
  <defs>
    <style>
      .cls-1 {
        fill: #fff;
      }
    </style>
  </defs>
  <g>
    <path class="cls-1" d="M11.62,45.4v-9.72h2.11c.72,0,1.29.11,1.71.33.42.22.72.55.9.99.18.44.27.99.27,1.64v3.58c0,.69-.09,1.27-.27,1.74-.18.47-.47.83-.88,1.07-.4.24-.95.37-1.63.37h-2.22ZM12.98,44.43h.77c.5,0,.85-.1,1.06-.29.21-.19.33-.47.38-.84.04-.37.07-.81.07-1.33v-3.16c0-.5-.03-.91-.1-1.22-.06-.31-.2-.54-.42-.68s-.56-.22-1.02-.22h-.73v7.74Z"/>
    <path class="cls-1" d="M19.75,45.5c-.51,0-.92-.1-1.21-.31s-.51-.5-.63-.89-.19-.84-.19-1.36v-2.02c0-.52.06-.97.19-1.36s.33-.68.63-.89c.3-.21.7-.31,1.21-.31s.91.1,1.21.31c.29.21.5.5.62.89s.19.84.19,1.36v2.02c0,.52-.06.97-.19,1.36s-.33.68-.62.89-.69.31-1.21.31ZM19.75,44.55c.25,0,.42-.07.52-.22.1-.14.16-.33.18-.57.02-.24.03-.48.03-.74v-2.17c0-.26,0-.51-.03-.74-.02-.23-.08-.42-.18-.57-.1-.15-.27-.22-.52-.22s-.42.07-.53.22c-.1.15-.17.34-.19.57-.02.23-.03.48-.03.74v2.17c0,.26.01.5.03.74.02.24.08.43.19.57.1.14.28.22.53.22Z"/>
    <path class="cls-1" d="M24.79,45.5c-.36,0-.65-.07-.87-.2-.22-.14-.38-.33-.48-.58-.1-.25-.15-.54-.15-.88v-4.52h-.73v-.85h.73v-2.03h1.28v2.03h1.12v.85h-1.12v4.44c0,.27.04.47.13.58.09.12.26.17.5.17.06,0,.14,0,.22-.01s.17-.02.25-.02v.95c-.16.02-.31.04-.44.05-.14.01-.28.02-.44.02Z"/>
  </g>
  <circle class="cls-1" cx="18.43" cy="18.92" r="12.65"/>
</svg>