<?xml version="1.0" encoding="UTF-8"?>
<svg id="Layer_1" data-name="Layer 1" xmlns="http://www.w3.org/2000/svg" viewBox="0 0 36.85 51.02">
  <path d="M16.52,33.91h-8.09V1.55h19.92v3.36h-15.4v10.71h13.88v4.27h-13.88v10.8h4.38s-.06.06-.08.09c-.69.91-.94,2.03-.72,3.14ZM25.43,32.2c.65-.35,1.38-.55,2.15-.55.28,0,.56.03.84.08v-1.05h-3.89c.39.46.69.97.9,1.52Z"/>
  <path d="M26.95,39.04c.76,0,1.35-.59,1.66-.94.45-.52.54-1.37.29-1.98-.35-.83-1.12-1.22-1.95-.79-.17.09-.34.56-.2.68.56.15,1.04.59.92,1.16s-.64.92-1.3.77-1.21-.64-1.42-1.18c-.25-.66-.25-1.37.09-2,.88-1.65,3.04-2,4.54-.83,1.35,1.05,1.77,2.91,1.05,4.52-.65,1.46-2.15,2.52-3.84,2.52H6.9c-.57.01-.96-.42-1-.88-.03-.41.31-1.01.87-1.01l20.17-.02Z"/>
  <path d="M22.84,44.8c.68-.21,1.22.07,1.41.6.21.6-.23,1.11-.84,1.3-.18.06,0,.58.18.68.81.44,1.63.02,1.96-.82.25-.65.16-1.39-.31-1.98-.31-.39-.99-.92-1.69-.92h-14.7c-.61-.01-.98-.39-1.02-.94-.03-.42.33-.99.9-.99h14.68c1.46.01,2.8.82,3.56,1.99,1.06,1.62.8,3.76-.65,4.99-1.34,1.14-3.3,1-4.39-.34-.47-.58-.62-1.32-.47-2.04.14-.64.61-1.3,1.39-1.53Z"/>
  <path d="M20.14,36.35c1.46,0,2.43-1.45,2.13-2.65-.2-.78-.72-1.22-1.47-1.24-.44,0-.95.46-.81.81.58.24,1.01.56.97,1.11-.05.65-.6,1.01-1.27.89-.78-.14-1.32-.73-1.53-1.36-.24-.75-.13-1.54.35-2.19,1.1-1.46,3.25-1.56,4.6-.26s1.5,3.52.33,5.08c-.81,1.07-2.11,1.74-3.5,1.74h-11.22c-.56,0-.93-.57-.9-.98.04-.54.41-.93,1.01-.93l11.31-.03Z"/>
</svg>