<?xml version="1.0" encoding="UTF-8"?>
<svg id="Layer_1" data-name="Layer 1" xmlns="http://www.w3.org/2000/svg" viewBox="0 0 36.85 51.02">
  <defs>
    <style>
      .cls-1 {
        fill: #ea34bf;
      }
    </style>
  </defs>
  <path class="cls-1" d="M22.09,16.78c0,4.82-3.67,8.73-3.67,8.73,0,0-3.67-3.91-3.67-8.73s3.67-8.73,3.67-8.73c0,0,3.67,3.91,3.67,8.73Z"/>
  <path class="cls-1" d="M17.23,16.11c2.41,4.18,1.19,9.4,1.19,9.4,0,0-5.13-1.55-7.54-5.73-2.41-4.18-1.19-9.4-1.19-9.4,0,0,5.13,1.55,7.54,5.73Z"/>
  <path class="cls-1" d="M12.7,17.97c4.18,2.41,5.73,7.54,5.73,7.54,0,0-5.22,1.22-9.4-1.19-4.18-2.41-5.73-7.54-5.73-7.54,0,0,5.22-1.22,9.4,1.19Z"/>
  <path class="cls-1" d="M9.69,21.84c4.82,0,8.73,3.67,8.73,3.67,0,0-3.91,3.67-8.73,3.67S.96,25.51.96,25.51c0,0,3.91-3.67,8.73-3.67Z"/>
  <path class="cls-1" d="M9.03,26.7c4.18-2.41,9.4-1.19,9.4-1.19,0,0-1.55,5.13-5.73,7.54-4.18,2.41-9.4,1.19-9.4,1.19,0,0,1.55-5.13,5.73-7.54Z"/>
  <path class="cls-1" d="M10.88,31.24c2.41-4.18,7.54-5.73,7.54-5.73,0,0,1.22,5.22-1.19,9.4-2.41,4.18-7.54,5.73-7.54,5.73,0,0-1.22-5.22,1.19-9.4Z"/>
  <path class="cls-1" d="M14.76,34.24c0-4.82,3.67-8.73,3.67-8.73,0,0,3.67,3.91,3.67,8.73s-3.67,8.73-3.67,8.73c0,0-3.67-3.91-3.67-8.73Z"/>
  <path class="cls-1" d="M19.62,34.91c-2.41-4.18-1.19-9.4-1.19-9.4,0,0,5.13,1.55,7.54,5.73s1.19,9.4,1.19,9.4c0,0-5.13-1.55-7.54-5.73Z"/>
  <path class="cls-1" d="M24.15,33.05c-4.18-2.41-5.73-7.54-5.73-7.54,0,0,5.22-1.22,9.4,1.19,4.18,2.41,5.73,7.54,5.73,7.54,0,0-5.22,1.22-9.4-1.19Z"/>
  <path class="cls-1" d="M27.16,29.18c-4.82,0-8.73-3.67-8.73-3.67,0,0,3.91-3.67,8.73-3.67,4.82,0,8.73,3.67,8.73,3.67,0,0-3.91,3.67-8.73,3.67Z"/>
  <path class="cls-1" d="M27.82,24.32c-4.18,2.41-9.4,1.19-9.4,1.19,0,0,1.55-5.13,5.73-7.54,4.18-2.41,9.4-1.19,9.4-1.19,0,0-1.55,5.13-5.73,7.54Z"/>
  <path class="cls-1" d="M25.97,19.78c-2.41,4.18-7.54,5.73-7.54,5.73,0,0-1.22-5.22,1.19-9.4,2.41-4.18,7.54-5.73,7.54-5.73,0,0,1.22,5.22-1.19,9.4Z"/>
  <path d="M18.8,7.7l-.37-.4-.38.4c-.11.12-2.19,2.37-3.23,5.58.29.24.58.51.86.8.68-2.44,2.09-4.38,2.76-5.23.91,1.14,3.15,4.29,3.15,7.93,0,3.45-1.99,6.44-2.97,7.73-.08.64-.18,1.01-.18,1.01,0,0-.38-.11-.98-.37.33.43.57.68.6.72l.38.4.37-.4c.15-.17,3.81-4.11,3.81-9.09s-3.66-8.91-3.81-9.08Z"/>
  <path d="M3.19,16.28l-.53.12.16.53c.05.16.95,3.08,3.21,5.59.35-.13.73-.25,1.12-.34-1.77-1.81-2.75-4-3.15-5,1.44-.22,5.29-.59,8.44,1.24,2.99,1.72,4.58,4.95,5.2,6.44.51.39.79.66.79.66,0,0-.29.27-.81.66.54-.07.87-.15.93-.16l.54-.13-.16-.52c-.07-.22-1.65-5.36-5.97-7.85s-9.55-1.29-9.77-1.24Z"/>
  <path d="M2.81,34.1l-.16.52.54.13c.16.04,3.14.71,6.45.01.06-.37.15-.75.26-1.14-2.45.63-4.84.38-5.9.22.53-1.36,2.14-4.87,5.29-6.69,2.99-1.72,6.58-1.5,8.18-1.29.6-.25.96-.35.96-.35,0,0,.09.39.17,1.04.21-.5.31-.83.33-.88l.16-.53-.53-.12c-.22-.05-5.47-1.25-9.78,1.24-4.3,2.48-5.89,7.62-5.96,7.84Z"/>
  <path d="M18.06,43.33l.37.4.38-.4c.11-.12,2.19-2.37,3.23-5.58-.29-.24-.58-.51-.86-.8-.68,2.44-2.09,4.38-2.76,5.23-.91-1.14-3.15-4.29-3.15-7.93,0-3.45,1.99-6.44,2.97-7.73.08-.64.18-1.01.18-1.01,0,0,.38.11.98.37-.33-.43-.57-.68-.6-.72l-.38-.4-.37.4c-.15.17-3.81,4.11-3.81,9.09s3.66,8.91,3.81,9.08Z"/>
  <path d="M33.67,34.74l.53-.12-.16-.53c-.05-.16-.95-3.08-3.21-5.59-.35.13-.73.25-1.12.34,1.77,1.81,2.75,4,3.15,5-1.44.22-5.29.59-8.44-1.24-2.99-1.72-4.58-4.95-5.2-6.44-.51-.39-.79-.66-.79-.66,0,0,.29-.27.81-.66-.54.07-.87.15-.93.16l-.54.13.16.52c.07.22,1.65,5.36,5.97,7.85,4.3,2.48,9.55,1.29,9.77,1.24Z"/>
  <path d="M34.04,16.93l.16-.52-.54-.13c-.16-.04-3.14-.71-6.45-.01-.06.37-.15.75-.26,1.14,2.45-.63,4.84-.38,5.9-.22-.53,1.36-2.14,4.87-5.29,6.69-2.99,1.72-6.58,1.5-8.18,1.29-.6.25-.96.35-.96.35,0,0-.09-.39-.17-1.04-.21.5-.31.83-.33.88l-.16.53.53.12c.22.05,5.47,1.25,9.78-1.24,4.3-2.48,5.89-7.62,5.96-7.84Z"/>
</svg>