<?xml version="1.0" encoding="UTF-8"?>
<svg id="Layer_1" data-name="Layer 1" xmlns="http://www.w3.org/2000/svg" viewBox="0 0 36.85 51.02">
  <path d="M35.33,17.41v.59c-.19.82-.92,1.42-1.76,1.39s-1.56-.69-1.62-1.6c-2.13.72-3.88,2.18-4.98,4.14-.8,1.42-1.23,2.94-1.38,4.56-.35.64-2,.95-2.9,1.07-2.86.39-5.74.38-8.6,0-.86-.11-2.75-.52-2.87-1.01-.13-.52-.17-1-.22-1.53-.28-2.49-.75-5.14-1.86-7.38-.87-1.76-2.23-3.32-4.25-3.49.06.93-.56,1.68-1.42,1.82s-1.62-.35-1.88-1.14.11-1.68.87-2.05,1.67-.13,2.17.63c3.5-2,7.05-1.24,9.7,1.79.56-4.16,3.45-6.76,7.22-8.25-.26-.83.11-1.68.85-2.05s1.63-.16,2.11.49.44,1.6-.13,2.18-1.49.71-2.21.21c-1.61,2.74-.56,6.03,1.11,8.57,2.78-2.56,6.14-1.75,9.01.29.47-.55,1.12-.78,1.84-.57.56.17,1.05.69,1.18,1.32Z"/>
  <g>
    <path d="M1.52,43.23v-1.24c.38,0,.68-.02.92-.08.23-.05.42-.14.54-.28.13-.13.22-.32.27-.57.05-.25.08-.57.08-.95v-9.55h1.71v9.58c0,.71-.08,1.3-.23,1.75-.15.45-.42.79-.81,1.01-.39.22-.94.33-1.65.33h-.82Z"/>
    <path d="M10.13,43.08c-.83,0-1.5-.16-2-.49s-.86-.79-1.07-1.4c-.21-.61-.32-1.32-.32-2.13v-4.69c0-.81.11-1.51.33-2.1.22-.59.57-1.03,1.07-1.34.49-.31,1.16-.47,1.99-.47s1.5.16,1.99.47c.49.32.84.76,1.06,1.34s.33,1.28.33,2.09v4.7c0,.8-.11,1.51-.33,2.11s-.57,1.07-1.06,1.4c-.49.33-1.15.5-1.99.5ZM10.13,41.72c.46,0,.8-.09,1.04-.28.23-.19.39-.45.47-.79s.12-.74.12-1.2v-5.42c0-.46-.04-.85-.12-1.18-.08-.33-.24-.59-.47-.76-.23-.18-.58-.27-1.04-.27s-.81.09-1.05.27c-.24.18-.4.43-.48.76-.08.33-.12.73-.12,1.18v5.42c0,.46.04.86.12,1.2s.24.61.48.79c.24.19.59.28,1.05.28Z"/>
    <path d="M15.2,42.94v-12.37h1.73v5.83l2.84-5.83h1.6l-2.44,5.45,2.84,6.92h-1.68l-2.37-5.8-.79,1.44v4.37h-1.73Z"/>
    <path d="M22.76,42.94v-12.37h4.8v1.28h-3.07v4.09h2.49v1.22h-2.49v4.54h3.1v1.24h-4.83Z"/>
    <path d="M28.98,42.94v-12.37h2.49c.82,0,1.51.11,2.05.33.54.22.94.57,1.2,1.05.26.48.39,1.12.39,1.9,0,.48-.05.91-.15,1.31-.1.39-.27.72-.49.99-.22.27-.52.47-.89.59l1.76,6.2h-1.66l-1.62-5.8h-1.34v5.8h-1.73ZM30.7,35.9h.66c.49,0,.89-.06,1.19-.18s.53-.33.67-.63c.14-.3.21-.71.21-1.24,0-.72-.13-1.25-.4-1.56-.27-.32-.79-.48-1.57-.48h-.76v4.09Z"/>
  </g>
</svg>