<?xml version="1.0" encoding="UTF-8"?>
<svg id="Layer_1" data-name="Layer 1" xmlns="http://www.w3.org/2000/svg" viewBox="0 0 36.85 36.85">
  <defs>
    <style>
      .cls-1 {
        fill: #fff;
      }
    </style>
  </defs>
  <path class="cls-1" d="M27.95,30.43h-2.68c-1.93,0-2.96-.68-3.31-2.3l-.89.12c-4.55.61-9.41,1.19-12.58,1.55-.22.23-.51.38-.83.43l-.89.15-1.42-4.15,1.35-.12c.91-.08,1.97-.18,3.13-.3.64-4.33,1.37-10.54,1.81-15.56h-5.45v-3.82h24.72v3.82h-15.37l-.04.36c-.05.56-.11,1.14-.16,1.72h10.36v14.33h1.85c.16-.71.21-2.64.23-3.73l.06-2.26,1.71,1.49c.22.19.73.43,1.13.54l.82.22-.03.85c-.12,3.43-.24,6.67-3.52,6.67ZM14.57,19.58c-.24,2.05-.48,4.07-.71,5.8,1.71-.18,3.5-.38,5.29-.59l-.35-.63c-.71-1.28-2.45-3.15-4.23-4.58ZM21.83,23.37l-1.71,1.3c.22-.03.43-.05.65-.08l1.05-.13v-1.1ZM16.15,16.14l.63.46c1.74,1.26,3.91,3.27,5.05,5.06v-5.54h-6.87c-.04.32-.07.64-.11.97l1.3-.95Z"/>
</svg>